<svg width="80" height="80" viewBox="0 0 80 80" xmlns="http://www.w3.org/2000/svg"><defs><clipPath id="c1"><circle cx="40" cy="40" r="40" /></clipPath></defs><g clip-path="url(#c1)"><rect width="80" height="80" fill="#0F6E56" /><path d="M-5 68 Q18 52 40 68 Q62 84 85 68L85 88L-5 88Z" fill="#1D9E75" /><path d="M-5 52 Q18 36 40 52 Q62 68 85 52L85 72L-5 72Z" fill="#5DCAA5" /><path d="M-5 36 Q18 20 40 36 Q62 52 85 36L85 56L-5 56Z" fill="#9FE1CB" /><path d="M-5 20 Q18 4 40 20 Q62 36 85 20L85 40L-5 40Z" fill="#E1F5EE" opacity="0.55" /></g></svg>
