<svg width="80" height="80" viewBox="0 0 80 80" xmlns="http://www.w3.org/2000/svg"><defs><clipPath id="c2"><circle cx="40" cy="40" r="40" /></clipPath></defs><g clip-path="url(#c2)"><rect width="80" height="80" fill="#412402" /><g transform="translate(40,40)"><polygon points="0,0 -9,-42 9,-42" fill="#EF9F27" /><polygon points="0,0 -9,-42 9,-42" fill="#BA7517" transform="rotate(45)" /><polygon points="0,0 -9,-42 9,-42" fill="#FAC775" transform="rotate(90)" /><polygon points="0,0 -9,-42 9,-42" fill="#BA7517" transform="rotate(135)" /><polygon points="0,0 -9,-42 9,-42" fill="#EF9F27" transform="rotate(180)" /><polygon points="0,0 -9,-42 9,-42" fill="#BA7517" transform="rotate(225)" /><polygon points="0,0 -9,-42 9,-42" fill="#FAC775" transform="rotate(270)" /><polygon points="0,0 -9,-42 9,-42" fill="#BA7517" transform="rotate(315)" /></g><circle cx="40" cy="40" r="14" fill="#FAC775" /><circle cx="40" cy="40" r="7" fill="#412402" /></g></svg>
